Coordinates
version=1
nRows=13
nColumns=22
inDegrees=yes

Units are S.I. units (second, meters, Newtons, ...)
If the header above contains a line with 'inDegrees', this indicates whether rotational values are in degrees (yes) or radians (no).

endheader
time	pelvis_tilt	pelvis_list	pelvis_rotation	pelvis_tx	pelvis_ty	pelvis_tz	hip_flexion_r	hip_adduction_r	hip_rotation_r	knee_angle_r	ankle_angle_r	subtalar_angle_r	hip_flexion_l	hip_adduction_l	hip_rotation_l	knee_angle_l	ankle_angle_l	subtalar_angle_l	lumbar_extension	lumbar_bending	lumbar_rotation
      3.43000000	     -6.55001253	     -8.11147638	     -9.31788519	      1.10541129	      0.97216768	      0.30315453	      7.56858616	     14.47557325	      0.67775328	    -21.52015101	     21.55134403	     -7.63193602	     37.21845598	    -11.55869022	     -2.23020548	    -27.25116928	      9.21171750	      5.25155063	     -3.93424544	     12.08905527	      8.25166382
      3.44000000	     -6.48150147	     -8.22890564	     -9.36116310	      1.11372383	      0.97136795	      0.30332634	      6.85070346	     14.53380325	      0.84033092	    -21.39024785	     21.86170045	     -7.56157398	     37.16989738	    -11.53257180	     -2.60591929	    -25.52150822	      9.30513188	      5.73964386	     -3.99943599	     12.18633643	      8.20932579
      3.45000000	     -6.42202148	     -8.34603458	     -9.40344197	      1.12208975	      0.97050314	      0.30347150	      6.14891611	     14.58474564	      0.97417117	    -21.27783179	     22.15441073	     -7.47848040	     37.12963413	    -11.50235372	     -2.98992846	    -23.93743918	      9.51093722	      6.21606006	     -4.04716733	     12.27979848	      8.16466227
      3.46000000	     -6.38117892	     -8.45383226	     -9.44951677	      1.13050617	      0.96956243	      0.30359738	      5.48215140	     14.62151508	      1.08771083	    -21.19793440	     22.43515405	     -7.38142886	     37.10546368	    -11.46139701	     -3.35196777	    -22.50716557	      9.78250814	      6.64029470	     -4.06540199	     12.36155109	      8.12364929
      3.47000000	     -6.35259926	     -8.54869917	     -9.50499169	      1.13897742	      0.96856795	      0.30370435	      4.84885156	     14.63993756	      1.19299892	    -21.16177759	     22.69775024	     -7.25674906	     37.08356700	    -11.40696768	     -3.66173843	    -21.23349522	     10.08796297	      7.00019372	     -4.06272155	     12.42819462	      8.08850226
      3.48000000	     -6.34484873	     -8.62761345	     -9.57817741	      1.14750531	      0.96750901	      0.30381135	      4.26633030	     14.63992795	      1.29898719	    -21.18723192	     22.95419650	     -7.10267509	     37.07027868	    -11.34320549	     -3.89890451	    -20.12573901	     10.41331768	      7.25902953	     -4.02949183	     12.47580653	      8.06192607
      3.49000000	     -6.35932340	     -8.68721668	     -9.67832472	      1.15610975	      0.96639125	      0.30393452	      3.73746944	     14.61678936	      1.40215060	    -21.27712962	     23.20980080	     -6.92082708	     37.06478524	    -11.27514916	     -4.06429798	    -19.19907804	     10.75234814	      7.41308167	     -3.96236802	     12.50124408	      8.06995074
      3.50000000	     -6.40708791	     -8.73412665	     -9.81095909	      1.16478019	      0.96518798	      0.30408339	      3.28234227	     14.58143810	      1.50920766	    -21.45092469	     23.48393345	     -6.75758463	     37.08746049	    -11.21700793	     -4.16872146	    -18.47694764	     11.13028234	      7.47683509	     -3.85262439	     12.51809314	      8.08972472
      3.51000000	     -6.44477828	     -8.75916453	     -9.98317102	      1.17356154	      0.96403302	      0.30426867	      2.83745571	     14.51407905	      1.64164972	    -21.67714105	     23.71227180	     -6.47742027	     37.05752990	    -11.15935653	     -4.21890336	    -17.91486895	     11.48671465	      7.51966409	     -3.74703745	     12.50409915	      8.16486191
      3.52000000	     -6.50485599	     -8.77346387	    -10.19129311	      1.18243208	      0.96284979	      0.30448833	      2.44829709	     14.43242675	      1.78579644	    -21.97656654	     23.92255248	     -6.15796368	     37.03353116	    -11.11575436	     -4.22053150	    -17.55362362	     11.82950673	      7.53362171	     -3.61181727	     12.48015483	      8.26447128
      3.53000000	     -6.57520440	     -8.76589268	    -10.44300187	      1.19136632	      0.96169634	      0.30472852	      2.11044983	     14.32137544	      1.96330358	    -22.35817332	     24.08569042	     -5.65540231	     36.98321455	    -11.07390780	     -4.17227374	    -17.35609627	     12.07252194	      7.53994096	     -3.46427702	     12.43615358	      8.40286081
      3.54000000	     -6.68146941	     -8.74700283	    -10.72432967	      1.20040532	      0.96051643	      0.30498281	      1.83442831	     14.19512387	      2.13792104	    -22.79350515	     24.24510853	     -5.16800448	     36.95555481	    -11.04402736	     -4.10967058	    -17.34695487	     12.23076640	      7.52648903	     -3.26483940	     12.38903812	      8.55409571
      3.55000000	     -6.81036204	     -8.70275999	    -11.02890441	      1.20951120	      0.95934999	      0.30522388	      1.62098766	     14.03599100	      2.32333700	    -23.29852937	     24.37182752	     -4.60311719	     36.94285383	    -11.00486105	     -4.02110471	    -17.51715264	     12.21549078	      7.47640515	     -3.03324227	     12.32213907	      8.70536771
